<svg xmlns="http://www.w3.org/2000/svg" width="636.5" height="492.7612" viewBox="0 0 636.5 492.7612"><defs><style>.a{isolation:isolate;}.b,.c,.d{fill:#fff;}.b,.d{stroke:#fff;stroke-miterlimit:10;}.d{stroke-width:0.25px;}</style></defs><title>Untitled-5</title><g class="a"><path class="b" d="M20.51,376.3491Q6.626,362.4668,6.6289,339.395q0-19.4678,11.8975-33.89Q30.4238,291.09,50.6133,291.0845q15.498,0,25.4179,4.5058,9.9113,4.5132,9.9141,19.6494a55.2629,55.2629,0,0,1-2.1631,14.4209A47.612,47.612,0,0,0,72.6055,322.27,26.5579,26.5579,0,0,0,62.15,320.2876q-11.8974,0-18.5674,7.9316a28.1783,28.1783,0,0,0-6.67,18.7471q0,12.6153,7.5713,18.9277a25.8173,25.8173,0,0,0,16.9453,6.31q8.6527,0,14.6015-3.4258,5.9489-3.4307,10.6348-12.9785,4.6816-9.5566,9.0137-27.9414L152.2832,70.44q-24.1583,9.734-37.4951,29.9239-13.3432,20.195-13.34,49.0317,0,13.3433,2.5235,18.5674,2.5181,5.2295,2.5234,5.9492-19.4677,0-29.0224-8.1123-9.5566-8.1123-9.5538-26.8594,0-23.0684,18.9278-44.8857,18.9271-21.8094,48.4912-35.3321,29.5577-13.52,59.1269-13.52h14.4209L154.8066,301.1782q-9.3794,44.3467-31.0058,66.6983Q102.1695,390.2271,59.9873,390.23,34.3847,390.23,20.51,376.3491Z"/></g><g class="a"><path class="c" d="M293.6855,206.6128a52.168,52.168,0,0,1,1.4756-11.4678q1.4751-6.4716,4.2012-16.6914,3.1787-10.6728,4.7695-18.168a65.4385,65.4385,0,0,0,1.59-13.3984q0-15.44-13.626-15.4414a30.8547,30.8547,0,0,0-7.4941.9082l-18.167,85.6133H233.7334L266.6611,63.5454q-15.2167,6.36-23.5039,19.0757-8.2925,12.7208-8.2881,30.6572,0,8.4039,1.5889,11.6953a19.9739,19.9739,0,0,1,1.59,3.7466q-12.2623,0-18.28-5.1094-6.0205-5.1093-6.0186-16.9184,0-14.53,11.9229-28.2725,11.9223-13.7373,30.5429-22.2553a88.8832,88.8832,0,0,1,37.2432-8.5157q3.1773,0,9.084.4541l-14.7608,69.49,23.3907-31.3384q27.9317-37.6933,28.1592-37.47h23.8447l-63.1319,72.6694,7.9483-.227q15.4408,0,21.8008,6.4721,6.3544,6.4718,6.3584,17.8272a66.5282,66.5282,0,0,1-1.59,13.9648q-1.5908,7.3828-4.542,18.2813-1.8193,7.0414-3.4062,13.8525a51.6975,51.6975,0,0,0-1.5889,11.3545,18.1245,18.1245,0,0,0,2.3838,9.3106,12.708,12.708,0,0,0,6.4727,5.6777q-13.8546,3.8585-22.4825,3.86Q293.6855,221.8276,293.6855,206.6128Z"/><path class="c" d="M353.751,212.5171q-6.7017-6.813-6.6992-20.4385a78.8755,78.8755,0,0,1,1.8164-14.7607l15.4423-72.896h32.7012l-16.3506,77.2114a28.0236,28.0236,0,0,0-.9082,7.2656q0,4.547,2.1573,6.4727,2.1548,1.9321,7.1533,1.93,6.5829,0,12.2627-5.5625a31.8515,31.8515,0,0,0,8.1758-14.4209h9.5371q-8.4039,24.5259-21.5733,33.2685-13.1733,8.7452-26.1152,8.7432Q360.4492,219.33,353.751,212.5171ZM374.0752,86.9355a17.2962,17.2962,0,0,1-5.2227-12.7167,17.68,17.68,0,0,1,5.2227-12.8311,17.1319,17.1319,0,0,1,12.7168-5.3364A18.2209,18.2209,0,0,1,404.96,74.2188a17.1288,17.1288,0,0,1-5.337,12.7167,17.6787,17.6787,0,0,1-12.831,5.2232A17.2985,17.2985,0,0,1,374.0752,86.9355Z"/><path class="c" d="M471.1562,211.95q-6.4716-7.377-6.4716-18.2812a58.656,58.656,0,0,1,1.1347-10.7872q1.1338-6.0146,2.3848-11.6953,1.2452-5.6733,1.7031-7.2666,1.815-7.9467,3.4063-15.6689a65.1092,65.1092,0,0,0,1.59-12.49q0-11.581-8.1758-11.5816-5.9076,0-10.4453,5.79a44.5656,44.5656,0,0,0-7.2676,15.1016l-15.4423,72.8965H400.8711l24.0723-113.5454h32.7011l-2.498,11.8086q11.3525-12.7157,26.5693-12.7173,11.5826,0,18.3946,6.3589t6.8125,19.3022a76.4554,76.4554,0,0,1-1.59,14.6475q-1.5908,8.064-4.541,19.6435-1.8208,7.0416-3.293,13.7393a52.126,52.126,0,0,0-1.4765,10.56q0,4.5453,2.0439,7.04,2.0435,2.5005,7.04,2.4971a13.4918,13.4918,0,0,0,10.9-4.8819q4.0869-4.8808,8.1748-15.1015H533.72q-8.4037,24.9828-19.416,33.4961-11.0171,8.5151-22.8232,8.5156Q477.6274,219.33,471.1562,211.95Z"/><path class="c" d="M545.4131,267.814a22.19,22.19,0,0,1-8.0625-17.6q0-9.9962,4.9961-16.3506a34.17,34.17,0,0,1,12.9443-9.9922,177.7833,177.7833,0,0,1,21.3467-7.7207l2.0439-9.5381q-11.811,12.7208-27.2509,12.7168a28.8788,28.8788,0,0,1-21.5733-8.8565q-8.6278-8.8564-8.63-27.705,0-16.8033,6.6993-35.3125a81.304,81.304,0,0,1,19.9843-31.3389A44.03,44.03,0,0,1,579.59,103.2861q9.3092,0,13.8526,3.1792a9.8094,9.8094,0,0,1,4.542,8.4024v.4546l2.27-10.9h32.9287L605.4785,236.1343q-4.5454,21.8013-16.01,30.2031a41.8929,41.8929,0,0,1-25.3213,8.4023A27.8722,27.8722,0,0,1,545.4131,267.814Zm21.2324-17.4864q3.63-4.204,5.6777-13.5117l2.7247-13.3984q-12.04,4.0869-18.6211,9.5381a17.4239,17.4239,0,0,0-6.586,14.0791,6.811,6.811,0,0,0,2.7256,5.1093,9.3512,9.3512,0,0,0,6.3584,2.3848Q563.0117,254.5288,566.6455,250.3276Zm10.1055-57.4541q5.3334-4.4281,7.6074-12.6035l11.582-54.956q-1.8207-7.9461-9.31-7.9483-9.0851,0-16.3506,10.5606A83.5541,83.5541,0,0,0,558.9248,153.36q-4.0884,14.8769-4.0879,26.2285,0,11.3583,3.293,14.5342a11.1523,11.1523,0,0,0,8.0615,3.1787Q571.4137,197.3013,576.751,192.8735Z"/></g><g class="a"><path class="d" d="M201.0293,380.5337q-9.9383-10.0414-9.9365-32.0068,0-18.6153,6.6943-41.8379,6.6921-23.2208,19.56-39.7471,12.8649-16.522,30.4375-16.5264a31.8846,31.8846,0,0,1,10.8779,1.6739q-9.2081,5.4418-17.6767,22.3837a184.4345,184.4345,0,0,0-13.7022,37.8643q-5.2317,20.9209-5.23,37.0264,0,11.2968,2.9287,17.7812,2.9276,6.4878,9.2046,6.4854,10.2474,0,20.396-14.7481,10.1448-14.748,16.7359-37.1318a152.43,152.43,0,0,0,6.5893-43.0938q0-12.9683-2.1968-20.8144a20.2832,20.2832,0,0,0-8.0537-11.8194q-5.8585-3.9711-16.5263-3.9746a68.5357,68.5357,0,0,0-29.9146,6.59,54.2738,54.2738,0,0,0-22.07,18.8271q-8.2662,12.2373-8.2627,28.3457,0,5.6486,1.0459,8.2627a16.4119,16.4119,0,0,1,1.0459,3.0332q-10.4626,0-15.794-4.1836-5.3349-4.182-5.3344-13.3886,0-14.4332,11.8193-27.6133,11.8161-13.1791,31.3789-21.3379a105.7226,105.7226,0,0,1,41.1065-8.1582q26.1474,0,37.8637,14.2256,11.7129,14.2279,11.7149,39.3281,0,22.3857-8.3677,46.6494a102.5532,102.5532,0,0,1-25.8355,41.1065q-17.469,16.8413-42.9892,16.84Q210.9658,390.5747,201.0293,380.5337Z"/></g><g class="a"><path class="c" d="M413.3672,325.3218a16.0391,16.0391,0,0,1-4.2461,10.5752,23.1334,23.1334,0,0,1-10.6543,7.0508,22.8254,22.8254,0,0,1-6.41.8007,54.1214,54.1214,0,0,1-8.0918,23.9541A45.9638,45.9638,0,0,1,366.58,383.7261a50.5569,50.5569,0,0,1-24.0342,5.6875q-15.2249,0-23.9546-7.69-8.7348-7.6918-8.7324-20.83a41.3688,41.3688,0,0,1,3.9258-17.3848A45.72,45.72,0,0,1,324.52,328.687a37.7908,37.7908,0,0,1,14.9815-8.6523v-.6407a25.13,25.13,0,0,1-7.05-8.8134,28.1866,28.1866,0,0,1-2.083-11.5362,30.2909,30.2909,0,0,1,4.727-16.2636,35.8268,35.8268,0,0,1,30.3633-16.7432q10.8948,0,17.9458,6.249a20.27,20.27,0,0,1,7.05,15.8623,16.54,16.54,0,0,1-3.3652,10.7354,10.7807,10.7807,0,0,1-8.8125,4.166,11.58,11.58,0,0,1-9.774-4.9668,12.9194,12.9194,0,0,0,4.7266-5.4482,17.3311,17.3311,0,0,0,1.8428-7.8516,10.35,10.35,0,0,0-2.2432-7.05A7.6849,7.6849,0,0,0,366.74,275.17a12.3906,12.3906,0,0,0-8.0112,3.2041,22.6,22.6,0,0,0-6.1689,8.5723,28.1359,28.1359,0,0,0-2.3233,11.2969A20.5578,20.5578,0,0,0,366.42,319.2329v.6416a31.2325,31.2325,0,0,0-14.18,6.97,40.827,40.827,0,0,0-10.5751,13.459,35.9353,35.9353,0,0,0-3.9258,16.1035q0,8.3336,4.166,12.9786,4.1646,4.6494,11.5366,4.6464a27.1852,27.1852,0,0,0,13.62-3.8457,35.4984,35.4984,0,0,0,11.5362-10.7353,39.3226,39.3226,0,0,0,6.4091-15.542,30.3891,30.3891,0,0,0-7.37.9609q-8.8139,2.8844-12.6582,8.4922l-.4809.1611a18.1222,18.1222,0,0,1-2.8838-5.7685,13.0671,13.0671,0,0,1-.6411-4.166,14.3264,14.3264,0,0,1,3.8457-9.7744,20.6794,20.6794,0,0,1,9.6137-6.0889,66.835,66.835,0,0,1,12.3374-1.9219,64.1811,64.1811,0,0,0,9.1333-1.122,26.4594,26.4594,0,0,0,7.4512-3.7657,25.0481,25.0481,0,0,0,5.6875-5.207h.32a14.4256,14.4256,0,0,1,3.5254,5.9287A15.1968,15.1968,0,0,1,413.3672,325.3218Z"/></g><g class="a"><path class="c" d="M437.9141,375.311q-10.6143-11.41-10.61-37.8349,0-21.0205,7.1065-45.2432a104.62,104.62,0,0,1,22.8212-41.5391q15.7134-17.3128,39.9385-17.3164,15.0132,0,24.2227,6.6065,9.2051,6.6064,9.208,20.2187,0,8.61-3.4024,13.5127-3.4071,4.9087-10.61,4.9053a13.8854,13.8854,0,0,1-11.4111-5.2051q3.6034-1.8016,6.4062-7.207a24.0657,24.0657,0,0,0,2.8027-11.2109,13.1135,13.1135,0,0,0-2.9023-8.8077q-2.9048-3.4027-9.31-3.4033-10.6128,0-20.2187,14.5137-9.6094,14.5166-15.5147,36.5342a163.6316,163.6316,0,0,0-5.9052,42.44q0,15.2154,5.205,23.2217,5.2032,8.0082,18.8174,8.0078a46.5721,46.5721,0,0,0,21.82-5.2051,50.5557,50.5557,0,0,0,17.2168-14.8144l4.6035,2.0019a52.88,52.88,0,0,1-14.8134,21.0195,66.344,66.344,0,0,1-42.24,16.2159Q448.52,386.7222,437.9141,375.311Z"/><path class="c" d="M536.8057,376.7124q-8.61-7.6054-8.6084-24.0225,0-13.8134,5.4052-30.3281a70.7176,70.7176,0,0,1,17.6163-28.6269q12.2094-12.11,31.2294-12.1123,23.6191,0,25.4239,27.0263a14.58,14.58,0,0,0,7.8076-4.9052,62.2842,62.2842,0,0,0,6.4062-8.9083h6.4063a145.84,145.84,0,0,1-9.6094,16.9161,32.179,32.179,0,0,1-11.0107,9.9091q-1.2012,18.8189-7.7071,33.0313-6.5068,14.2163-16.916,21.9209a37.7978,37.7978,0,0,1-23.0215,7.707Q545.4107,384.32,536.8057,376.7124Zm45.2422-22.4209q6.4043-12.0117,8.8085-29.6279-4.8047-1.8018-4.8046-9.0088,0-7.8077,5.6054-10.4092-.4042-6.4043-2.1015-8.9092-1.7037-2.5005-5.5059-2.5019-6.6064,0-12.6113,9.5088a85.1008,85.1008,0,0,0-9.71,23.0214q-3.7061,13.5132-3.7031,23.7227,0,9.6094,2.2021,12.9121,2.2,3.3033,8.0079,3.3037Q575.6386,366.3032,582.0479,354.2915Z"/></g></svg>